<svg xmlns="http://www.w3.org/2000/svg" width="220" height="56" fill="none" viewBox="0 0 220 56"><path fill="#fd5523" fill-rule="evenodd" d="M54.553 56 71 0 0 35.503l40.018-4.073z" clip-rule="evenodd"/><path fill="#020e28" d="M86.324 28.64V6.144h4.48V28.64zM79 9.61V5.654h19.127V9.61zm18.483 19.03V12.847h4.283V28.64zm4.283-8.73-1.667-1.112q.294-2.91 1.7-4.577 1.406-1.7 4.054-1.7 1.145 0 2.06.392.916.36 1.668 1.21l-2.681 3.073a2.25 2.25 0 0 0-.883-.588 3.1 3.1 0 0 0-1.145-.197q-1.373 0-2.256.883-.85.85-.85 2.616m15.477 9.057q-2.158 0-3.891-1.079-1.733-1.08-2.714-2.943t-.981-4.185q0-2.354.981-4.218t2.714-2.943 3.891-1.079q1.7 0 3.041.687a5.35 5.35 0 0 1 2.125 1.93q.817 1.209.883 2.746v5.69q-.066 1.569-.883 2.779-.785 1.21-2.125 1.929-1.341.686-3.041.686m.785-3.956q1.798 0 2.91-1.177 1.111-1.21 1.111-3.107 0-1.242-.523-2.19a3.5 3.5 0 0 0-1.406-1.504q-.883-.556-2.092-.556-1.178 0-2.093.556-.882.523-1.406 1.504-.49.948-.49 2.19 0 1.276.49 2.257a4.07 4.07 0 0 0 1.406 1.504q.915.523 2.093.523m3.792 3.63V24.39l.687-3.859-.687-3.793v-3.89h4.251V28.64zm18.666-.001v-9.057q0-1.405-.882-2.289-.883-.883-2.289-.883-.915 0-1.635.393a2.95 2.95 0 0 0-1.144 1.112q-.393.72-.393 1.667l-1.667-.85q0-1.864.785-3.237a5.8 5.8 0 0 1 2.223-2.19q1.439-.786 3.237-.786 1.732 0 3.106.883a6.1 6.1 0 0 1 2.158 2.256q.785 1.374.785 2.976V28.64zm-10.626 0V12.847h4.283V28.64zm23.787.36q-1.34 0-2.648-.36-1.275-.36-2.354-.98a7.7 7.7 0 0 1-1.864-1.57l2.551-2.583a5.3 5.3 0 0 0 1.896 1.373q1.079.458 2.387.458 1.046 0 1.569-.294.556-.294.556-.883 0-.654-.589-1.014-.555-.36-1.471-.588-.915-.262-1.929-.556a12 12 0 0 1-1.896-.818 4.4 4.4 0 0 1-1.504-1.406q-.556-.915-.556-2.354 0-1.505.719-2.616.752-1.11 2.125-1.733 1.374-.621 3.237-.621 1.962 0 3.532.687a6.5 6.5 0 0 1 2.648 2.06l-2.583 2.583q-.72-.883-1.635-1.276a4.7 4.7 0 0 0-1.929-.392q-.948 0-1.471.294-.49.296-.491.818 0 .588.556.915.589.328 1.504.589.916.23 1.896.556 1.014.294 1.897.85.916.556 1.471 1.471.59.915.589 2.355 0 2.321-1.668 3.694Q156.525 29 153.647 29"/><path fill="#fd5523" d="M163.206 28.64V5.654h4.446V28.64zm14.419 0V5.654h4.447V28.64zm-11.607-9.907v-3.924h12.849v3.924zm27.03 10.234q-2.093 0-3.728-.883a6.5 6.5 0 0 1-2.517-2.452q-.916-1.569-.916-3.63v-9.155h4.316v9.058q0 .98.327 1.7.327.687.981 1.046.654.36 1.537.36 1.34 0 2.092-.817.752-.818.752-2.29v-9.057h4.284v9.156q0 2.093-.916 3.662-.882 1.57-2.518 2.452-1.602.85-3.694.85m19.301 0q-1.7 0-3.073-.719a5.8 5.8 0 0 1-2.191-1.962 5.4 5.4 0 0 1-.883-2.78v-5.623q.066-1.537.883-2.747a5.8 5.8 0 0 1 2.223-1.929q1.374-.687 3.041-.687 2.19 0 3.924 1.08 1.732 1.079 2.713 2.942Q220 18.406 220 20.76q0 2.322-1.014 4.185-.98 1.864-2.713 2.943-1.734 1.08-3.924 1.08m-8.763-.327V5h4.284v11.738l-.72 3.793.687 3.859v4.25zm8.044-3.63q1.176 0 2.06-.522a3.74 3.74 0 0 0 1.406-1.504q.523-.98.523-2.257 0-1.242-.523-2.19a3.5 3.5 0 0 0-1.406-1.504q-.916-.556-2.093-.556t-2.093.556q-.882.523-1.405 1.504-.49.948-.491 2.19 0 1.276.491 2.257a3.97 3.97 0 0 0 1.438 1.504q.916.523 2.093.523"/><path fill="#535353" d="M83.929 51q-1.459 0-2.573-.621a4.63 4.63 0 0 1-1.734-1.755Q79 47.491 79 46q0-1.477.621-2.597a4.6 4.6 0 0 1 1.735-1.768Q82.47 41 83.93 41q1.489 0 2.602.635a4.4 4.4 0 0 1 1.72 1.768q.621 1.12.621 2.597 0 1.493-.621 2.624a4.4 4.4 0 0 1-1.72 1.755Q85.418 51 83.929 51m.014-1.23q1.04 0 1.822-.455.78-.456 1.2-1.298.433-.843.433-2.017t-.434-2.017a2.94 2.94 0 0 0-1.2-1.284q-.78-.456-1.82-.456t-1.822.456q-.78.443-1.214 1.284-.434.843-.434 2.017t.434 2.017q.435.842 1.214 1.298.78.456 1.821.456m6.669 1.063v-9.668h1.445l5.16 7.417v-7.417h1.446v9.668h-1.445l-5.16-7.403v7.403zm10.163 0v-9.668h6.389v1.132h-4.943v3.094h4.51v1.105h-4.51v3.205h4.943v1.132zm14.312 0v-8.536h-2.992v-1.132h7.444v1.132h-3.006v8.536zm5.916 0v-9.668h3.426q1.2 0 1.966.387.765.386 1.127 1.035.376.636.376 1.45 0 .774-.376 1.437-.361.65-1.142 1.05-.78.387-1.995.387h-1.936v3.922zm5.319 0-2.182-4.295h1.59l2.269 4.295zm-3.873-4.972h1.879q1.07 0 1.575-.497.506-.511.506-1.299 0-.8-.491-1.27-.492-.47-1.59-.47h-1.879zm6.67 4.972 3.714-9.668h1.576l3.715 9.668h-1.547l-2.963-8.01-2.978 8.01zm1.676-2.39.405-1.104h4.756l.404 1.105zM143.424 51q-1.488 0-2.573-.621a4.4 4.4 0 0 1-1.662-1.755q-.578-1.133-.578-2.624 0-1.477.578-2.61a4.27 4.27 0 0 1 1.662-1.755q1.085-.635 2.573-.635 1.778 0 2.877.815 1.113.815 1.416 2.293h-1.59a2.4 2.4 0 0 0-.896-1.368q-.665-.51-1.807-.51-1.026 0-1.778.455a3 3 0 0 0-1.156 1.298q-.405.843-.405 2.017 0 1.175.405 2.03.405.843 1.156 1.299.752.441 1.778.442 1.142 0 1.807-.484.68-.497.896-1.34h1.59q-.303 1.437-1.416 2.252-1.1.801-2.877.801m6.022-.166v-9.668h1.446v4.199l4.047-4.2h1.807l-3.758 3.84 3.83 5.83h-1.763l-3.094-4.752-1.069 1.091v3.66zm12.464 0v-9.668h6.389v1.132h-4.943v3.094h4.51v1.105h-4.51v3.205h4.943v1.132zm7.738 0 3.122-4.89-3.137-4.778h1.648l2.4 3.674 2.269-3.674h1.619L174.461 46l3.151 4.834h-1.648l-2.428-3.729-2.255 3.73zm9.54 0v-9.668h3.455q1.213 0 1.995.387.78.386 1.156 1.035.376.65.376 1.478 0 .788-.376 1.45-.362.65-1.142 1.05-.78.387-2.009.387h-2.009v3.881zm1.446-5.027h1.951q1.142 0 1.619-.47.491-.484.491-1.27 0-.843-.491-1.299-.477-.456-1.619-.456h-1.951zm7.094 5.027v-9.668h3.426q1.2 0 1.966.387.765.386 1.127 1.035.376.636.376 1.45 0 .774-.376 1.437-.361.65-1.142 1.05-.78.387-1.994.387h-1.937v3.922zm5.319 0-2.182-4.295h1.59l2.269 4.295zm-3.873-4.972h1.879q1.07 0 1.575-.497.506-.511.506-1.299 0-.8-.491-1.27-.492-.47-1.59-.47h-1.879zm7.32 4.972v-9.668h6.389v1.132h-4.944v3.094h4.51v1.105h-4.51v3.205h4.944v1.132zm11.568.166q-1.113 0-1.952-.373-.837-.387-1.3-1.077-.463-.691-.463-1.616h1.518q.014.525.26.967.26.428.737.69.492.249 1.2.249.607 0 1.041-.194.447-.193.679-.525.231-.345.231-.787 0-.51-.246-.842a1.8 1.8 0 0 0-.664-.539 5 5 0 0 0-.954-.387q-.536-.165-1.128-.359-1.2-.372-1.792-.967-.579-.593-.578-1.547 0-.814.404-1.408.405-.609 1.128-.94.737-.345 1.734-.345.984 0 1.72.345.738.345 1.157.953t.419 1.423h-1.532q0-.374-.203-.732a1.5 1.5 0 0 0-.607-.58q-.405-.235-.997-.235a2.1 2.1 0 0 0-.882.152q-.39.166-.607.483a1.3 1.3 0 0 0-.217.76q0 .442.188.718.203.262.578.456.376.194.868.36.505.151 1.113.344.752.235 1.329.58.594.333.926.87.346.526.346 1.354 0 .72-.39 1.34t-1.156 1.022q-.767.387-1.908.387m8.483 0q-1.113 0-1.951-.373-.839-.387-1.301-1.077-.462-.691-.462-1.616h1.517q.015.525.26.967.261.428.738.69.49.249 1.199.249.607 0 1.041-.194.448-.193.679-.525.232-.345.232-.787 0-.51-.246-.842a1.8 1.8 0 0 0-.665-.539 5 5 0 0 0-.954-.387q-.534-.165-1.127-.359-1.2-.372-1.793-.967-.578-.593-.578-1.547 0-.814.405-1.408a2.64 2.64 0 0 1 1.127-.94q.738-.345 1.735-.345.982 0 1.72.345.737.345 1.156.953.42.608.419 1.423h-1.532q0-.374-.202-.732a1.5 1.5 0 0 0-.607-.58q-.405-.235-.998-.235a2.1 2.1 0 0 0-.881.152q-.39.166-.607.483a1.3 1.3 0 0 0-.217.76q0 .442.188.718.202.262.578.456t.867.36q.506.151 1.113.344.752.235 1.33.58.592.333.925.87.347.526.347 1.354 0 .72-.39 1.34t-1.157 1.022q-.765.387-1.908.387"/></svg>