<svg width="28" height="29" viewBox="0 0 28 29" fill="none" xmlns="http://www.w3.org/2000/svg">
<path d="M27.9796 12.0564V11.6855C27.9796 9.15851 25.9589 7.10291 23.4749 7.10291H20.423C19.5428 7.10291 18.7042 7.35685 17.9741 7.84149C17.2684 7.3751 16.4282 7.10291 15.5259 7.10291H12.4741C11.5718 7.10291 10.7316 7.3751 10.0259 7.84149C9.29662 7.35685 8.45719 7.10291 7.57696 7.10291H4.52513C2.04108 7.10291 0.0203945 9.15851 0.0203945 11.6855V12.0564C0.0081578 12.1328 0 12.2108 0 12.2888V15.449C0 16.2415 0.633861 16.8855 1.41211 16.8855H3.65225C3.84559 16.8855 4.00385 17.0017 4.06421 17.1892C4.22737 17.6938 4.42968 18.1909 4.66708 18.6664C4.75436 18.8423 4.72418 19.0382 4.58713 19.1776L3.00207 20.79C2.73531 21.0606 2.58928 21.4216 2.58928 21.8058C2.58928 22.19 2.73612 22.551 3.00207 22.8216L5.19896 25.0564C5.46491 25.3278 5.81977 25.4763 6.19748 25.4763C6.57518 25.4763 6.93005 25.327 7.19599 25.0564L8.78105 23.444C8.9181 23.3046 9.11063 23.273 9.28357 23.3627C9.75101 23.6033 10.2388 23.8091 10.7357 23.9759C10.9192 24.0373 11.0342 24.1975 11.0342 24.395V26.6739C11.0342 27.4664 11.6681 28.1112 12.4463 28.1112H15.5528C16.3319 28.1112 16.9658 27.4664 16.9658 26.6739V24.395C16.9658 24.1983 17.08 24.0373 17.2643 23.9759C17.7603 23.81 18.249 23.6041 18.7164 23.3627C18.8894 23.2739 19.0819 23.3046 19.219 23.444L20.804 25.0564C21.07 25.3278 21.4248 25.4763 21.8025 25.4763C22.1802 25.4763 22.5351 25.327 22.801 25.0564L24.9979 22.8216C25.2647 22.551 25.4107 22.19 25.4107 21.8058C25.4107 21.4216 25.2639 21.0606 24.9979 20.79L23.4129 19.1776C23.2758 19.0382 23.2448 18.8423 23.3329 18.6664C23.5695 18.1909 23.7726 17.6938 23.9358 17.1892C23.9962 17.0017 24.1544 16.8855 24.3478 16.8855H26.5879C27.367 16.8855 28 16.2407 28 15.449V12.2888C28 12.2108 27.9918 12.1336 27.9796 12.0564ZM23.4741 8.09876C25.4181 8.09876 26.9999 9.70789 26.9999 11.6855V13.078H20.0298V11.6855C20.0298 10.4564 19.551 9.33942 18.7735 8.51535C19.2785 8.24149 19.8381 8.09876 20.4214 8.09876H23.4741ZM8.458 14.0747H19.5412H19.7957C19.6888 17.234 17.1306 19.771 13.9996 19.771C10.8686 19.771 8.31035 17.234 8.20348 14.0747H8.458ZM15.5259 8.09876C17.4699 8.09876 19.0517 9.70789 19.0517 11.6855V13.078H8.94747V11.6855C8.94747 9.70789 10.5293 8.09876 12.4733 8.09876H15.5259ZM0.998514 11.6855C0.998514 9.70789 2.58031 8.09876 4.52431 8.09876H7.57614C8.15943 8.09876 8.71905 8.24149 9.22402 8.51535C8.44658 9.33942 7.96772 10.4564 7.96772 11.6855V13.078H0.998514V11.6855ZM26.5879 15.8905H24.3478C23.7261 15.8905 23.2 16.278 23.0058 16.8788C22.8581 17.3361 22.6746 17.7859 22.46 18.2174C22.1794 18.7817 22.2814 19.4357 22.7211 19.883L24.3062 21.4954C24.3877 21.5784 24.4326 21.6888 24.4326 21.8075C24.4326 21.9261 24.3877 22.0365 24.3062 22.1195L22.1093 24.3544C22.0277 24.4373 21.9192 24.483 21.8025 24.483C21.6859 24.483 21.5774 24.4373 21.4958 24.3544L19.9107 22.7419C19.471 22.2946 18.8282 22.19 18.2735 22.4763C17.8501 22.6946 17.4071 22.8813 16.9576 23.0315C16.3678 23.229 15.986 23.7643 15.986 24.3967V26.6755C15.986 26.9187 15.7919 27.117 15.552 27.117H12.4455C12.2065 27.117 12.0124 26.9195 12.0124 26.6755V24.3967C12.0124 23.7643 11.6306 23.229 11.0408 23.0315C10.5913 22.8813 10.1483 22.6946 9.72491 22.4763C9.17018 22.19 8.52734 22.2946 8.08764 22.7419L6.50258 24.3544C6.421 24.4373 6.3125 24.483 6.19585 24.483C6.07919 24.483 5.97069 24.4373 5.88911 24.3544L3.69222 22.1195C3.61064 22.0365 3.56577 21.9261 3.56577 21.8075C3.56577 21.6888 3.61064 21.5784 3.69222 21.4954L5.27728 19.883C5.71698 19.4357 5.81977 18.7817 5.53833 18.2174C5.32378 17.7859 5.14023 17.3361 4.99257 16.8788C4.79842 16.278 4.27224 15.8905 3.65061 15.8905H1.41048C1.17146 15.8905 0.977304 15.6929 0.977304 15.4498V14.0747H7.22373C7.33141 17.7826 10.3278 20.7668 13.9988 20.7668C17.6698 20.7668 20.6661 17.7834 20.7738 14.0747H27.0202V15.4498C27.0211 15.6921 26.8269 15.8905 26.5879 15.8905ZM10.6443 3.41411C10.6443 5.29627 12.1494 6.82739 13.9996 6.82739C15.8498 6.82739 17.3549 5.29627 17.3549 3.41411C17.3549 1.53195 15.8498 0.00083065 13.9996 0.00083065C12.1494 0.00083065 10.6443 1.53195 10.6443 3.41411ZM16.376 3.41411C16.376 4.74689 15.3097 5.83154 13.9996 5.83154C12.6895 5.83154 11.6232 4.74689 11.6232 3.41411C11.6232 2.08133 12.6895 0.996681 13.9996 0.996681C15.3097 0.996681 16.376 2.08133 16.376 3.41411ZM6.05064 6.82656C7.90083 6.82656 9.40594 5.29544 9.40594 3.41328C9.40594 1.53112 7.90083 0 6.05064 0C4.20045 0 2.69534 1.53112 2.69534 3.41328C2.69534 5.29544 4.20126 6.82656 6.05064 6.82656ZM6.05064 0.996681C7.36078 0.996681 8.427 2.08133 8.427 3.41411C8.427 4.74689 7.36078 5.83154 6.05064 5.83154C4.74049 5.83154 3.67427 4.74689 3.67427 3.41411C3.67427 2.08133 4.74049 0.996681 6.05064 0.996681ZM21.9485 0.00083065C20.0984 0.00083065 18.5932 1.53195 18.5932 3.41411C18.5932 5.29627 20.0984 6.82739 21.9485 6.82739C23.7987 6.82739 25.3039 5.29627 25.3039 3.41411C25.3039 1.53195 23.7979 0.00083065 21.9485 0.00083065ZM21.9485 5.83071C20.6384 5.83071 19.5722 4.74606 19.5722 3.41328C19.5722 2.0805 20.6384 0.995851 21.9485 0.995851C23.2587 0.995851 24.3249 2.0805 24.3249 3.41328C24.3249 4.74606 23.2587 5.83071 21.9485 5.83071Z" fill="white"/>
</svg>
