<svg width="36" height="36" viewBox="0 0 36 36" fill="none" xmlns="http://www.w3.org/2000/svg">
<g clip-path="url(#clip0_2381_210)">
<path d="M4.60352 19.0748H19.2689C19.5602 19.0748 19.7963 18.8387 19.7963 18.5475C19.7963 18.2563 19.5602 18.0201 19.2689 18.0201H4.60352C4.31221 18.0201 4.07617 18.2563 4.07617 18.5475C4.07617 18.8387 4.31228 19.0748 4.60352 19.0748Z" fill="#FD5523"/>
<path d="M4.60352 21.6486H19.2689C19.5602 21.6486 19.7963 21.4125 19.7963 21.1213C19.7963 20.83 19.5602 20.5939 19.2689 20.5939H4.60352C4.31221 20.5939 4.07617 20.83 4.07617 21.1213C4.07617 21.4125 4.31228 21.6486 4.60352 21.6486Z" fill="#FD5523"/>
<path d="M4.60352 24.2225H16.8698C17.1611 24.2225 17.3972 23.9864 17.3972 23.6951C17.3972 23.4039 17.1611 23.1678 16.8698 23.1678H4.60352C4.31221 23.1678 4.07617 23.4039 4.07617 23.6951C4.07617 23.9864 4.31228 24.2225 4.60352 24.2225Z" fill="#FD5523"/>
<path d="M35.3989 16.4151C35.3989 12.0308 33.6916 7.90853 30.5913 4.80758C27.4905 1.70734 23.3682 0 18.9839 0C14.5996 0 10.4774 1.70734 7.37637 4.80758C5.28413 6.89982 3.80249 9.49472 3.07939 12.3278C1.63165 12.887 0.601562 14.293 0.601562 15.9358V24.9933C0.601562 27.1252 2.33597 28.8596 4.4678 28.8596H5.63246C5.92377 28.8596 6.15981 28.6235 6.15981 28.3322C6.15981 28.041 5.92377 27.8049 5.63246 27.8049H4.46787C2.91753 27.8049 1.65633 26.5436 1.65633 24.9933V15.9358C1.65633 14.3851 2.9176 13.1235 4.46787 13.1235H19.4056C20.9559 13.1235 22.2171 14.3851 22.2171 15.9358V24.9933C22.2171 26.5436 20.9559 27.8049 19.4056 27.8049H16.2823C15.991 27.8049 15.7549 28.041 15.7549 28.3322V31.6316C15.7549 31.8971 15.556 32.0094 15.495 32.0374C15.434 32.0656 15.2191 32.1438 15.0171 31.971L10.2958 27.9315C10.2003 27.8497 10.0787 27.8049 9.95299 27.8049H8.14735C7.85604 27.8049 7.62 28.041 7.62 28.3322C7.62 28.6235 7.85604 28.8596 8.14735 28.8596H9.75815L14.3314 32.7724C14.6114 33.0119 14.9545 33.1357 15.3035 33.1357C15.5166 33.1357 15.7319 33.0895 15.9361 32.9955C16.4749 32.7474 16.8096 32.2248 16.8096 31.6316V28.8596H19.4056C21.5374 28.8596 23.2718 27.1252 23.2718 24.9933V15.9358C23.2718 13.8036 21.5374 12.0688 19.4056 12.0688H6.51496C7.36406 9.64815 8.93296 7.48187 10.9873 5.91368C13.304 4.1451 16.0692 3.21021 18.9839 3.21021C26.265 3.21021 32.1886 9.13388 32.1886 16.415C32.1886 17.0743 32.138 17.7346 32.0399 18.3869L31.7084 18.1432C31.77 17.166 31.1882 16.2222 30.2226 15.8708C29.6539 15.6638 29.0387 15.6906 28.4903 15.9464C27.9419 16.2022 27.5258 16.6562 27.3189 17.2249L24.1325 25.9793C23.7053 27.1532 24.3127 28.4558 25.4866 28.8831C25.7395 28.9751 26.0015 29.0209 26.2629 29.0209C26.5892 29.0209 26.9144 28.9494 27.2189 28.8074C27.5689 28.6442 27.8646 28.4 28.0869 28.097L28.1514 28.1012L27.2624 30.3167C26.9742 31.0339 26.2887 31.4973 25.5162 31.4973H23.2273C22.7076 30.7274 21.8272 30.2202 20.8305 30.2202C19.237 30.2202 17.9406 31.5166 17.9406 33.1101C17.9406 34.7036 19.237 36 20.8305 36C21.8275 36 22.7081 35.4925 23.2277 34.7224H25.5162C27.6135 34.7224 29.4737 33.4649 30.2553 31.5187L31.6936 27.9356C32.1919 27.6565 32.5922 27.2068 32.7957 26.6474L33.3201 25.206C33.4197 24.9324 33.2786 24.6297 33.0049 24.5302C32.731 24.4306 32.4286 24.5717 32.3291 24.8454L31.8046 26.2868C31.5966 26.8585 31.0272 27.2299 30.4201 27.191L28.5572 27.0705L31.4099 19.2328L32.914 20.3384C33.4041 20.6985 33.6013 21.3494 33.3939 21.9209L33.1898 22.4813C33.0901 22.755 33.2313 23.0576 33.5048 23.1573C33.5645 23.179 33.6254 23.1892 33.6852 23.1892C33.9006 23.1892 34.1028 23.0563 34.1808 22.8422L34.385 22.2813C34.4494 22.1039 34.4913 21.9222 34.5126 21.7397C35.1004 20.0241 35.3989 18.233 35.3989 16.4151ZM20.8304 34.9453C19.8185 34.9453 18.9952 34.1221 18.9952 33.1101C18.9952 32.0982 19.8185 31.2749 20.8304 31.2749C21.8424 31.2749 22.6657 32.0981 22.6657 33.1101C22.6656 34.122 21.8423 34.9453 20.8304 34.9453ZM30.4324 28.246L29.2764 31.1256C28.6563 32.6698 27.1803 33.6676 25.5162 33.6676H23.6659C23.7013 33.4872 23.7204 33.3008 23.7204 33.1101C23.7204 32.9191 23.7013 32.7326 23.6657 32.5519H25.5162C26.7217 32.5519 27.7913 31.8289 28.2411 30.7096L29.2592 28.1728L30.352 28.2433C30.3788 28.2452 30.4055 28.2452 30.4324 28.246ZM30.5856 18.4138L27.3992 27.1683C27.2886 27.4722 27.0663 27.7148 26.7732 27.8515C26.4801 27.9882 26.1514 28.0026 25.8474 27.8919C25.22 27.6636 24.8954 26.9674 25.1237 26.34L28.31 17.5856C28.4206 17.2817 28.643 17.039 28.936 16.9023C29.0988 16.8264 29.2726 16.7882 29.4471 16.7882C29.5866 16.7882 29.7268 16.8127 29.8619 16.8619C30.4893 17.0902 30.8139 17.7864 30.5856 18.4138ZM32.9911 19.0862C33.1583 18.207 33.2433 17.3102 33.2433 16.4151C33.2433 8.55239 26.8465 2.15559 18.9839 2.15559C15.8359 2.15559 12.8495 3.16521 10.3473 5.07541C8.03211 6.84287 6.28778 9.31472 5.40261 12.0689H4.46787C4.39193 12.0689 4.31669 12.0717 4.24181 12.0761C4.95985 9.62621 6.29101 7.38456 8.12211 5.55347C11.0239 2.65235 14.8812 1.0547 18.9839 1.0547C23.0865 1.0547 26.9439 2.65235 29.8456 5.55325C32.7466 8.45493 34.3442 12.3124 34.3442 16.415C34.3442 17.585 34.212 18.743 33.9508 19.8743C33.8305 19.732 33.6929 19.6019 33.5385 19.4885L32.9911 19.0862Z" fill="#FD5523"/>
</g>
<defs>
<clipPath id="clip0_2381_210">
<rect width="36" height="36" fill="white"/>
</clipPath>
</defs>
</svg>
