<svg width="40" height="40" viewBox="0 0 40 40" fill="none" xmlns="http://www.w3.org/2000/svg">
<path d="M10.625 21.25C10.2936 21.2503 9.97583 21.3821 9.74148 21.6165C9.50713 21.8508 9.37533 22.1686 9.375 22.5V35.625C9.37533 35.9564 9.50713 36.2742 9.74148 36.5085C9.97583 36.7429 10.2936 36.8747 10.625 36.875H13.1882C13.3322 37.5807 13.7157 38.2151 14.2736 38.6706C14.8315 39.1262 15.5297 39.375 16.25 39.375C16.9703 39.375 17.6685 39.1262 18.2264 38.6706C18.7843 38.2151 19.1678 37.5807 19.3118 36.875H28.8132C28.9572 37.5807 29.3407 38.2151 29.8986 38.6706C30.4565 39.1262 31.1547 39.375 31.875 39.375C32.5953 39.375 33.2935 39.1262 33.8514 38.6706C34.4093 38.2151 34.7928 37.5807 34.9368 36.875H36.875C37.3721 36.8745 37.8487 36.6767 38.2002 36.3252C38.5517 35.9737 38.7495 35.4971 38.75 35V30.3937C38.7484 30.0089 38.6306 29.6335 38.4122 29.3167L34.6332 23.9172C34.4587 23.6731 34.2287 23.474 33.9621 23.3363C33.6955 23.1985 33.4001 23.1261 33.1 23.125H27.5V22.5C27.4997 22.1686 27.3679 21.8508 27.1335 21.6165C26.8992 21.3821 26.5814 21.2503 26.25 21.25H10.625ZM16.25 38.125C15.8792 38.125 15.5166 38.015 15.2083 37.809C14.9 37.603 14.6596 37.3101 14.5177 36.9675C14.3758 36.6249 14.3387 36.2479 14.411 35.8842C14.4834 35.5205 14.662 35.1864 14.9242 34.9242C15.1864 34.662 15.5205 34.4834 15.8842 34.411C16.2479 34.3387 16.6249 34.3758 16.9675 34.5177C17.3101 34.6596 17.603 34.9 17.809 35.2083C18.015 35.5166 18.125 35.8792 18.125 36.25C18.1245 36.7471 17.9267 37.2237 17.5752 37.5752C17.2237 37.9267 16.7471 38.1245 16.25 38.125ZM26.25 35.625H19.3118C19.1678 34.9193 18.7843 34.2849 18.2264 33.8294C17.6685 33.3738 16.9703 33.125 16.25 33.125C15.5297 33.125 14.8315 33.3738 14.2736 33.8294C13.7157 34.2849 13.3322 34.9193 13.1882 35.625H10.625V22.5H26.25V35.625ZM31.875 38.125C31.5042 38.125 31.1416 38.015 30.8333 37.809C30.525 37.603 30.2846 37.3101 30.1427 36.9675C30.0008 36.6249 29.9637 36.2479 30.036 35.8842C30.1084 35.5205 30.287 35.1864 30.5492 34.9242C30.8114 34.662 31.1455 34.4834 31.5092 34.411C31.8729 34.3387 32.2499 34.3758 32.5925 34.5177C32.9351 34.6596 33.228 34.9 33.434 35.2083C33.64 35.5166 33.75 35.8792 33.75 36.25C33.7495 36.7471 33.5517 37.2237 33.2002 37.5752C32.8487 37.9267 32.3721 38.1245 31.875 38.125ZM34.7401 26.25L36.4899 28.75H30.625V26.25H34.7401ZM27.5 24.375H33.1C33.2003 24.3756 33.2991 24.3998 33.3882 24.4458C33.4774 24.4918 33.5544 24.5582 33.613 24.6396L33.8652 25H30C29.8342 25 29.6753 25.0658 29.5581 25.1831C29.4408 25.3003 29.375 25.4592 29.375 25.625V29.375C29.375 29.5408 29.4408 29.6997 29.5581 29.8169C29.6753 29.9342 29.8342 30 30 30H37.3648L37.3825 30.0253C37.4577 30.1336 37.4986 30.2619 37.5 30.3937V35C37.4998 35.1657 37.4339 35.3245 37.3167 35.4417C37.1995 35.5589 37.0407 35.6248 36.875 35.625H34.9368C34.7928 34.9193 34.4093 34.2849 33.8514 33.8294C33.2935 33.3738 32.5953 33.125 31.875 33.125C31.1547 33.125 30.4565 33.3738 29.8986 33.8294C29.3407 34.2849 28.9572 34.9193 28.8132 35.625H27.5V24.375Z" fill="white"/>
<path d="M1.25 25H8.125V26.25H1.25V25Z" fill="white"/>
<path d="M2.5 28.75H8.125V30H2.5V28.75Z" fill="white"/>
<path d="M3.75 32.5H8.125V33.75H3.75V32.5Z" fill="white"/>
<path d="M7.5 14.375C7.59594 14.375 7.69059 14.3529 7.77663 14.3104C7.86267 14.268 7.93781 14.2063 7.99625 14.1302C8.45703 13.5288 12.5 8.17963 12.5 5.625C12.5 4.29892 11.9732 3.02715 11.0355 2.08947C10.0979 1.15178 8.82608 0.625 7.5 0.625C6.17392 0.625 4.90215 1.15178 3.96447 2.08947C3.02678 3.02715 2.5 4.29892 2.5 5.625C2.5 8.17963 6.54297 13.5288 7.00378 14.1302C7.06221 14.2063 7.13735 14.268 7.22339 14.3104C7.30943 14.3528 7.40407 14.3749 7.5 14.375ZM7.5 1.875C8.49423 1.87609 9.44742 2.27152 10.1505 2.97455C10.8535 3.67758 11.2489 4.63077 11.25 5.625C11.25 7.21588 8.87421 10.8139 7.5 12.7036C6.12579 10.8139 3.75 7.21588 3.75 5.625C3.75109 4.63077 4.14652 3.67758 4.84955 2.97455C5.55258 2.27152 6.50577 1.87609 7.5 1.875Z" fill="white"/>
<path d="M10.3125 5.625C10.3125 5.06874 10.1476 4.52497 9.83851 4.06246C9.52947 3.59995 9.09022 3.23946 8.5763 3.02659C8.06238 2.81372 7.49688 2.75802 6.95131 2.86654C6.40574 2.97506 5.9046 3.24293 5.51126 3.63626C5.11793 4.0296 4.85006 4.53074 4.74154 5.07631C4.63302 5.62188 4.68872 6.18738 4.90159 6.7013C5.11446 7.21522 5.47495 7.65447 5.93746 7.96351C6.39997 8.27255 6.94374 8.4375 7.5 8.4375C8.24567 8.43669 8.96057 8.14011 9.48784 7.61284C10.0151 7.08557 10.3117 6.37067 10.3125 5.625ZM5.9375 5.625C5.9375 5.31597 6.02914 5.01387 6.20083 4.75692C6.37252 4.49997 6.61655 4.2997 6.90206 4.18144C7.18757 4.06318 7.50173 4.03223 7.80483 4.09252C8.10793 4.15281 8.38634 4.30163 8.60486 4.52015C8.82338 4.73867 8.97219 5.01708 9.03248 5.32017C9.09277 5.62327 9.06182 5.93743 8.94356 6.22294C8.8253 6.50845 8.62503 6.75248 8.36808 6.92417C8.11113 7.09586 7.80903 7.1875 7.5 7.1875C7.08575 7.18702 6.6886 7.02224 6.39568 6.72932C6.10276 6.4364 5.93799 6.03925 5.9375 5.625Z" fill="white"/>
<path d="M32.5 15.625C32.5959 15.625 32.6906 15.6029 32.7766 15.5604C32.8627 15.518 32.9378 15.4563 32.9962 15.3802C33.457 14.7788 37.5 9.42963 37.5 6.875C37.5 5.54892 36.9732 4.27715 36.0355 3.33947C35.0979 2.40178 33.8261 1.875 32.5 1.875C31.1739 1.875 29.9021 2.40178 28.9645 3.33947C28.0268 4.27715 27.5 5.54892 27.5 6.875C27.5 9.42963 31.543 14.7788 32.0038 15.3802C32.0622 15.4563 32.1373 15.518 32.2234 15.5604C32.3094 15.6029 32.4041 15.625 32.5 15.625ZM32.5 3.125C33.4942 3.12609 34.4474 3.52152 35.1504 4.22455C35.8535 4.92758 36.2489 5.88077 36.25 6.875C36.25 8.46588 33.8742 12.0639 32.5 13.9536C31.1258 12.0639 28.75 8.46588 28.75 6.875C28.7511 5.88077 29.1465 4.92758 29.8496 4.22455C30.5526 3.52152 31.5058 3.12609 32.5 3.125Z" fill="white"/>
<path d="M35.3125 6.875C35.3125 6.31874 35.1475 5.77497 34.8385 5.31246C34.5295 4.84995 34.0902 4.48946 33.5763 4.27659C33.0624 4.06372 32.4969 4.00802 31.9513 4.11654C31.4057 4.22506 30.9046 4.49293 30.5113 4.88626C30.1179 5.2796 29.8501 5.78074 29.7415 6.32631C29.633 6.87188 29.6887 7.43738 29.9016 7.9513C30.1145 8.46522 30.4749 8.90447 30.9375 9.21351C31.4 9.52255 31.9437 9.6875 32.5 9.6875C33.2457 9.68669 33.9606 9.39011 34.4878 8.86284C35.0151 8.33557 35.3117 7.62067 35.3125 6.875ZM30.9375 6.875C30.9375 6.56597 31.0291 6.26387 31.2008 6.00692C31.3725 5.74997 31.6165 5.5497 31.9021 5.43144C32.1876 5.31318 32.5017 5.28223 32.8048 5.34252C33.1079 5.40281 33.3863 5.55163 33.6049 5.77015C33.8234 5.98867 33.9722 6.26708 34.0325 6.57017C34.0928 6.87327 34.0618 7.18743 33.9436 7.47294C33.8253 7.75845 33.625 8.00248 33.3681 8.17417C33.1111 8.34586 32.809 8.4375 32.5 8.4375C32.0857 8.43702 31.6886 8.27224 31.3957 7.97932C31.1028 7.6864 30.938 7.28925 30.9375 6.875Z" fill="white"/>
<path d="M29.7996 17.5C30.2393 17.4986 30.6786 17.4729 31.1155 17.4232L30.9754 16.1811C30.5843 16.2255 30.191 16.2486 29.7974 16.2502L29.7996 17.5Z" fill="white"/>
<path d="M28.6323 16.1787C28.2494 16.1295 27.8707 16.0521 27.4992 15.9472L27.1567 17.1493C27.5875 17.2711 28.0266 17.3611 28.4706 17.4185L28.6323 16.1787Z" fill="white"/>
<path d="M26.4235 15.5454C26.0763 15.3821 25.7429 15.1911 25.4264 14.9742L24.7256 16.0092C25.0963 16.2628 25.4868 16.4863 25.8933 16.6775L26.4235 15.5454Z" fill="white"/>
<path d="M11.8446 13.5734C11.4492 13.6883 11.0427 13.817 10.625 13.9593L11.0309 15.142C11.4285 15.0055 11.8162 14.8826 12.1939 14.7734L11.8446 13.5734Z" fill="white"/>
<path d="M24.4383 14.2525C24.083 13.9853 23.7098 13.7426 23.3215 13.5262L22.7227 14.6237C23.0618 14.8128 23.3875 15.0251 23.6973 15.2592L24.4383 14.2525Z" fill="white"/>
<path d="M14.5647 14.2096L14.3366 12.9809C13.9365 13.055 13.5187 13.1435 13.083 13.2463L13.3723 14.4623C13.7864 14.3638 14.1844 14.2804 14.5647 14.2096Z" fill="white"/>
<path d="M16.9781 13.8896L16.8785 12.6434C16.4904 12.6744 16.0641 12.7181 15.603 12.7794L15.7677 14.0184C16.2055 13.9602 16.6103 13.9191 16.9781 13.8896Z" fill="white"/>
<path d="M21.6785 14.1713L22.077 12.9867C21.954 12.9454 21.826 12.9056 21.6927 12.8672C21.3906 12.78 21.084 12.7093 20.7741 12.6556L20.5615 13.8874C20.8269 13.9335 21.0896 13.9941 21.3484 14.0689C21.4632 14.1015 21.5732 14.1356 21.6785 14.1713Z" fill="white"/>
<path d="M19.4098 13.7797L19.4393 12.5302C19.063 12.5211 18.6626 12.5298 18.1411 12.5581L18.2088 13.8063C18.6966 13.7797 19.0671 13.7717 19.4098 13.7797Z" fill="white"/>
</svg>
