<svg width="32" height="24" viewBox="0 0 32 24" fill="none" xmlns="http://www.w3.org/2000/svg">
<path d="M6.95405 17.5883C7.19235 15.5182 6.03034 13.6181 4.3769 13.215C2.6939 12.8046 1.39303 10.3511 1.39303 7.7644C1.39303 4.2559 4.19596 1.41171 7.65354 1.41171C11.2844 1.41171 13.914 4.4634 13.914 9.22979C13.8929 15.166 10.2808 19.6774 4.61705 21.6627C6.00721 20.4217 6.78792 19.0315 6.95405 17.5883ZM7.65354 0C3.42761 0 0.00180817 3.47624 0.00180817 7.7644C0.00180817 10.9317 1.62668 13.9963 4.05184 14.5876C4.98731 14.8157 5.7323 16.0339 5.57222 17.4245C5.35797 19.2858 3.69918 21.1663 0.414794 22.6482C-0.316495 22.9782 -0.0102892 24.0945 0.783836 23.9936C9.34344 22.9062 15.2767 17.2437 15.3052 9.23235C15.3053 3.72274 12.0974 0 7.65354 0Z" fill="white"/>
<path d="M23.6489 17.5883C23.8872 15.5182 22.7252 13.6181 21.0717 13.215C19.3887 12.8046 18.0879 10.3511 18.0879 7.7644C18.0879 4.2559 20.8908 1.41171 24.3484 1.41171C27.9792 1.41171 30.6089 4.4634 30.6088 9.22979C30.5877 15.166 26.9756 19.6774 21.3119 21.6627C22.702 20.4217 23.4827 19.0315 23.6489 17.5883ZM24.3484 0C20.1224 0 16.6966 3.47624 16.6966 7.7644C16.6966 10.9317 18.3215 13.9963 20.7467 14.5876C21.6821 14.8157 22.4271 16.0339 22.267 17.4245C22.0528 19.2858 20.394 21.1663 17.1096 22.6482C16.3783 22.9782 16.6845 24.0945 17.4787 23.9936C26.0383 22.9062 31.9715 17.2437 32 9.23235C32.0001 3.72274 28.7922 0 24.3484 0Z" fill="white"/>
</svg>
