<svg width="40" height="40" viewBox="0 0 40 40" fill="none" xmlns="http://www.w3.org/2000/svg">
<path d="M26.5367 34.2023C26.6477 34.4367 26.5477 34.7156 26.3133 34.8265C24.332 35.764 22.2078 36.239 20 36.239C18.1977 36.239 16.4367 35.9179 14.7664 35.2851C14.5242 35.1937 14.4023 34.9226 14.4938 34.6804C14.5852 34.4383 14.8562 34.3164 15.0984 34.4078C16.6625 35 18.3117 35.3008 20 35.3008C22.068 35.3008 24.0578 34.8554 25.9125 33.9781C26.1461 33.8687 26.4258 33.9687 26.5367 34.2023ZM5.79844 23.689C5.81719 23.689 5.83672 23.6883 5.85625 23.6859C6.11328 23.6547 6.29609 23.4203 6.26484 23.1633C6.19609 22.6031 6.16172 22.0312 6.16172 21.4633C6.16172 16.9679 8.35859 12.7359 12.0383 10.1429C12.25 9.99373 12.3008 9.70154 12.1516 9.48982C12.0023 9.2781 11.7102 9.22732 11.4984 9.37654C7.57031 12.1453 5.225 16.6633 5.225 21.4633C5.225 22.0695 5.2625 22.6797 5.33516 23.2773C5.3625 23.5148 5.56484 23.689 5.79844 23.689ZM27.9625 10.1429C31.6422 12.7359 33.8391 16.9679 33.8391 21.4633C33.8391 21.9226 33.8164 22.3859 33.7711 22.8406C33.7453 23.0984 33.9336 23.3273 34.1914 23.3531C34.207 23.3547 34.2227 23.3554 34.2383 23.3554C34.4766 23.3554 34.6805 23.175 34.7039 22.9328C34.7516 22.4476 34.7758 21.9539 34.7758 21.4633C34.7758 16.6633 32.4305 12.1453 28.5023 9.37654C28.2906 9.22732 27.9984 9.2781 27.8492 9.48982C27.7008 9.70076 27.7516 9.99373 27.9625 10.1429ZM20 29.5062C15.5648 29.5062 11.9562 25.8976 11.9562 21.4625C11.9562 17.0273 15.5648 13.4195 20 13.4195C24.4352 13.4195 28.0437 17.0281 28.0437 21.4633C28.0437 25.8984 24.4352 29.5062 20 29.5062ZM20.4688 28.5C21.3609 28.239 22.1562 27.25 22.7023 25.8437C21.9961 25.6984 21.2422 25.6094 20.4688 25.5844V28.5ZM23 24.9508C23.2563 24.0429 23.4172 23.0156 23.4539 21.9312H20.4688V24.6461C21.3445 24.6742 22.1992 24.7781 23 24.9508ZM23.4539 20.9945C23.4172 19.9101 23.2563 18.8828 23 17.975C22.1992 18.1476 21.3445 18.2523 20.4688 18.2797V20.9945H23.4539ZM22.7023 17.0812C22.1562 15.6758 21.3609 14.6859 20.4688 14.425V17.3406C21.243 17.3156 21.9961 17.2273 22.7023 17.0812ZM19.5312 14.4258C18.6391 14.6867 17.8438 15.6758 17.2977 17.082C18.0039 17.2273 18.7578 17.3164 19.5312 17.3414V14.4258ZM17 17.975C16.7438 18.8828 16.5828 19.9101 16.5461 20.9945H19.5312V18.2797C18.6555 18.2515 17.8008 18.1476 17 17.975ZM16.5461 21.932C16.5828 23.0164 16.7438 24.0437 17 24.9515C17.8008 24.7789 18.6555 24.6742 19.5312 24.6469V21.932H16.5461ZM17.2977 25.8445C17.8438 27.25 18.6391 28.2398 19.5312 28.5008V25.5851C18.757 25.6101 18.0039 25.6984 17.2977 25.8445ZM22.4984 28.1156C23.4148 27.7703 24.2422 27.2406 24.9344 26.5718C24.532 26.3789 24.0898 26.2125 23.618 26.0726C23.4906 26.4094 23.3492 26.7297 23.193 27.0304C22.9805 27.4406 22.7477 27.8023 22.4984 28.1156ZM25.5859 25.8508C26.4469 24.757 26.9938 23.4047 27.0906 21.9312H24.3914C24.3562 23.0789 24.1914 24.1836 23.9102 25.1828C24.518 25.3648 25.082 25.5883 25.5859 25.8508ZM27.0906 20.9945C26.9945 19.5211 26.4477 18.1687 25.5859 17.075C25.082 17.3375 24.518 17.5609 23.9102 17.7422C24.1914 18.7414 24.3562 19.8461 24.3914 20.9937H27.0906V20.9945ZM24.9336 16.3539C24.2414 15.6851 23.4148 15.1562 22.4977 14.8109C22.7469 15.1234 22.9797 15.4859 23.1922 15.8953C23.3484 16.1961 23.4898 16.5172 23.6172 16.8531C24.0891 16.7133 24.5312 16.5469 24.9336 16.3539ZM17.5016 14.8109C16.5852 15.1562 15.7578 15.6859 15.0656 16.3547C15.468 16.5476 15.9102 16.714 16.382 16.8539C16.5094 16.5172 16.6508 16.1969 16.807 15.8961C17.0195 15.4851 17.2523 15.1234 17.5016 14.8109ZM14.4141 17.075C13.5531 18.1687 13.0063 19.5211 12.9094 20.9945H15.6086C15.6437 19.8469 15.8086 18.7422 16.0898 17.7429C15.482 17.5609 14.918 17.3375 14.4141 17.075ZM12.9102 21.932C13.0063 23.4054 13.5531 24.757 14.4148 25.8515C14.9187 25.589 15.4828 25.3656 16.0906 25.1843C15.8094 24.1851 15.6445 23.0804 15.6094 21.9328H12.9102V21.932ZM15.0664 26.5718C15.7586 27.2406 16.5852 27.7695 17.5023 28.1156C17.2531 27.8031 17.0203 27.4406 16.8078 27.0312C16.6516 26.7304 16.5102 26.4093 16.3828 26.0734C15.9109 26.2125 15.4688 26.3789 15.0664 26.5718ZM38.8281 34.3758V36.8969C38.8281 37.1554 38.618 37.3656 38.3594 37.3656H28.2883C28.0297 37.3656 27.8195 37.1554 27.8195 36.8969V34.3758C27.8195 32.5976 28.9438 30.807 31.407 30.1984C30.6469 29.6187 30.1547 28.7047 30.1547 27.6773C30.1547 25.9297 31.5766 24.5078 33.3242 24.5078C35.0719 24.5078 36.4938 25.9297 36.4938 27.6773C36.4938 28.7047 36.0016 29.6195 35.2414 30.1984C37.7039 30.8062 38.8281 32.5976 38.8281 34.3758ZM31.0922 27.6765C31.0922 28.907 32.093 29.9086 33.3242 29.9086C34.5547 29.9086 35.5563 28.9078 35.5563 27.6765C35.5563 26.4453 34.5555 25.4445 33.3242 25.4445C32.093 25.4453 31.0922 26.4461 31.0922 27.6765ZM37.8906 34.3758C37.8906 32.2758 36.0984 30.9187 33.3242 30.9187C30.55 30.9187 28.7578 32.2758 28.7578 34.3758V36.4281H30.2602V34.7984C30.2602 34.5398 30.4703 34.3297 30.7289 34.3297C30.9875 34.3297 31.1977 34.5398 31.1977 34.7984V36.4281H35.4523V34.7984C35.4523 34.5398 35.6625 34.3297 35.9211 34.3297C36.1797 34.3297 36.3898 34.5398 36.3898 34.7984V36.4281H37.8906V34.3758ZM13.1562 28.1062V33.7656C13.1562 33.9359 13.0641 34.0922 12.9156 34.175L7.39219 37.2523C7.32109 37.2922 7.24297 37.3117 7.16406 37.3117C7.08516 37.3117 7.00703 37.2914 6.93594 37.2515V37.2523L1.4125 34.175C1.26406 34.0922 1.17188 33.9351 1.17188 33.7656V28.1062C1.17188 27.9398 1.26016 27.7859 1.40312 27.7023C1.40625 27.7008 1.40937 27.6992 1.4125 27.6976V27.6968L6.93594 24.6195C7.07812 24.5406 7.25 24.5406 7.39219 24.6195L12.9156 27.6968V27.6976C12.9188 27.6992 12.9219 27.7008 12.925 27.7023C13.068 27.7867 13.1562 27.9406 13.1562 28.1062ZM6.28516 26.0554L10.6398 28.7101L11.7234 28.1062L7.16406 25.5664L6.28516 26.0554ZM7.16406 30.6469L8.45312 29.9289L4.05391 27.2984L2.60391 28.1062L7.16406 30.6469ZM9.69922 29.2344L5.34453 26.5797L5 26.7718L9.39922 29.4023L9.69922 29.2344ZM9.88125 31.7656L10.1609 31.6039V30.0508L9.88125 30.2062V31.7656ZM2.10938 33.4906L6.69531 36.0453V31.4586L2.10938 28.9039V33.4906ZM12.2188 28.9039L11.0984 29.5281V31.8742C11.0984 32.0414 11.0094 32.1961 10.8641 32.2797L9.64688 32.9836C9.57422 33.0258 9.49297 33.0469 9.4125 33.0469C9.33125 33.0469 9.25078 33.0258 9.17813 32.9844C9.03281 32.9008 8.94375 32.7461 8.94375 32.5781V30.7289L7.63281 31.4593V36.0461L12.2188 33.4914V28.9039ZM13.5672 10.8687V3.57888C13.5672 3.05857 13.9906 2.63513 14.5109 2.63513H21.1039C21.6242 2.63513 22.0477 3.05857 22.0477 3.57888V4.41951H24.1508C24.3094 4.41951 24.4578 4.49998 24.5438 4.63357L26.3555 7.42888C26.4047 7.50466 26.4313 7.59373 26.4313 7.68357V10.8679C26.4313 11.1265 26.2211 11.3367 25.9625 11.3367H25.1477C24.9516 11.9101 24.4094 12.3234 23.7711 12.3234C23.1328 12.3234 22.5898 11.9094 22.3945 11.3367H21.5797H17.5844C17.3883 11.9101 16.8461 12.3234 16.2078 12.3234C15.5695 12.3234 15.0266 11.9094 14.8312 11.3367H14.0367C13.7773 11.3375 13.5672 11.1273 13.5672 10.8687ZM16.7258 10.8687C16.7258 10.5828 16.493 10.3508 16.2078 10.3508C15.9219 10.3508 15.6898 10.5836 15.6898 10.8687C15.6898 11.1547 15.9227 11.3867 16.2078 11.3867C16.493 11.3867 16.7258 11.1547 16.7258 10.8687ZM21.1109 10.4V8.95935H14.5047V10.4H14.8305C15.0266 9.82654 15.5687 9.41326 16.207 9.41326C16.8453 9.41326 17.3883 9.82732 17.5836 10.4H21.1109ZM24.2906 10.8687C24.2906 10.5828 24.0578 10.3508 23.7727 10.3508C23.4867 10.3508 23.2547 10.5836 23.2547 10.8687C23.2547 11.1547 23.4875 11.3867 23.7727 11.3867C24.0578 11.3867 24.2906 11.1547 24.2906 10.8687ZM24.7578 6.68435H23.8211V7.2156H25.1016L24.7578 6.68435ZM22.0484 5.35701V10.3992H22.3945C22.5906 9.82576 23.1328 9.41248 23.7711 9.41248C24.4094 9.41248 24.9523 9.82654 25.1477 10.3992H25.4938V8.15232H23.3508C23.0922 8.15232 22.882 7.94216 22.882 7.68357V6.21482C22.882 5.95623 23.0922 5.74607 23.3508 5.74607H24.1484L23.8961 5.35701H22.0484ZM14.5047 3.57888V8.02185H21.1109V3.57888C21.1109 3.57654 21.107 3.57263 21.1047 3.57263H14.5117C14.5086 3.57263 14.5047 3.57654 14.5047 3.57888Z" fill="black"/>
</svg>
