<svg width="36" height="36" viewBox="0 0 36 36" fill="none" xmlns="http://www.w3.org/2000/svg">
<g clip-path="url(#clip0_2418_190)">
<path d="M32.1589 6.88618H33.2712C33.6592 6.88618 33.9739 6.57152 33.9739 6.18351C33.9739 5.7955 33.6592 5.48085 33.2712 5.48085H30.6011C30.2131 5.48085 29.8984 5.7955 29.8984 6.18351V8.85363C29.8984 9.24165 30.2131 9.5563 30.6011 9.5563C30.9891 9.5563 31.3037 9.24165 31.3037 8.85363V8.08049C33.4358 10.9348 34.5947 14.398 34.5947 18C34.5947 27.1504 27.1504 34.5947 18 34.5947C8.84963 34.5947 1.40533 27.1504 1.40533 18C1.40533 8.84963 8.84963 1.40533 18 1.40533C18.6767 1.40533 19.3578 1.44643 20.0245 1.52745C20.4092 1.57397 20.7601 1.3 20.8069 0.914728C20.8537 0.529527 20.5794 0.179179 20.1941 0.132382C19.4714 0.0445489 18.7332 0 18 0C13.192 0 8.67179 1.87232 5.27209 5.27209C1.87232 8.67179 0 13.192 0 18C0 22.808 1.87232 27.3282 5.27209 30.7279C8.67179 34.1277 13.192 36 18 36C22.808 36 27.3282 34.1277 30.7279 30.7279C34.1277 27.3282 36 22.808 36 18C36 13.9427 34.6446 10.0477 32.1589 6.88618Z" fill="#FD5523"/>
<path d="M7.62215 10.6112C7.29422 10.4036 6.86018 10.5013 6.65255 10.829C5.04844 13.3625 4.33832 16.4094 4.65305 19.4084C4.97241 22.452 6.34225 25.3221 8.51025 27.4901C11.1266 30.1065 14.5634 31.4147 18.0003 31.4147C21.4372 31.4147 24.8739 30.1066 27.4903 27.4901C32.7231 22.2573 32.7231 13.7429 27.4903 8.51012C25.3256 6.3455 22.4602 4.97615 19.4218 4.65433C16.4283 4.33707 13.3847 5.04163 10.8522 6.63788C10.5239 6.84481 10.4256 7.27871 10.6324 7.60699C10.8394 7.93534 11.2733 8.03365 11.6015 7.82678C16.3753 4.81798 22.5002 5.5075 26.4965 9.50383C31.1814 14.1887 31.1814 21.8115 26.4965 26.4964C21.8117 31.1813 14.1888 31.1813 9.50403 26.4964C5.56293 22.5553 4.86307 16.2824 7.83998 11.5808C8.04748 11.2529 7.95002 10.8188 7.62215 10.6112Z" fill="#FD5523"/>
<path d="M27.1343 18.714H28.0008C28.3888 18.714 28.7035 18.3994 28.7035 18.0114C28.7035 17.6234 28.3888 17.3087 28.0008 17.3087H27.1343C26.7463 17.3087 26.4316 17.6234 26.4316 18.0114C26.4316 18.3994 26.7462 18.714 27.1343 18.714Z" fill="#FD5523"/>
<path d="M7.29688 17.9886C7.29688 18.3766 7.61153 18.6913 7.99954 18.6913H8.86606C9.25407 18.6913 9.56873 18.3766 9.56873 17.9886C9.56873 17.6006 9.25407 17.2859 8.86606 17.2859H7.99954C7.61153 17.2859 7.29688 17.6005 7.29688 17.9886Z" fill="#FD5523"/>
<path d="M18.7139 8.86527V7.99875C18.7139 7.61073 18.3993 7.29608 18.0113 7.29608C17.6232 7.29608 17.3086 7.61073 17.3086 7.99875V8.86527C17.3086 9.25328 17.6232 9.56793 18.0113 9.56793C18.3993 9.56793 18.7139 9.25328 18.7139 8.86527Z" fill="#FD5523"/>
<path d="M17.2852 27.1347V28.0012C17.2852 28.3892 17.5998 28.7039 17.9878 28.7039C18.3758 28.7039 18.6905 28.3892 18.6905 28.0012V27.1347C18.6905 26.7467 18.3758 26.432 17.9878 26.432C17.5998 26.432 17.2852 26.7466 17.2852 27.1347Z" fill="#FD5523"/>
<path d="M14.4789 13.4842C14.2044 13.2098 13.7596 13.2098 13.4851 13.4842C13.2107 13.7586 13.2107 14.2035 13.4851 14.4779L15.8665 16.8593C15.684 17.1994 15.5802 17.5878 15.5802 18C15.5802 19.3348 16.6661 20.4207 18.0009 20.4207C19.3357 20.4207 20.4216 19.3348 20.4216 18C20.4216 17.5878 20.3177 17.1994 20.1353 16.8593L24.9403 12.0543C25.2147 11.7799 25.2147 11.335 24.9403 11.0605C24.6659 10.7862 24.2211 10.7862 23.9466 11.0605L19.1415 15.8656C18.8014 15.6831 18.4131 15.5793 18.0009 15.5793C17.5887 15.5793 17.2004 15.6832 16.8603 15.8656L14.4789 13.4842ZM19.0162 18C19.0162 18.5599 18.5608 19.0153 18.0009 19.0153C17.441 19.0153 16.9855 18.5599 16.9855 18C16.9855 17.4401 17.441 16.9846 18.0009 16.9846C18.5608 16.9846 19.0162 17.4401 19.0162 18Z" fill="#FD5523"/>
<path d="M9.50413 9.5034C9.63553 9.37271 9.71065 9.19142 9.71065 9.00662C9.71065 8.82182 9.63553 8.64123 9.50413 8.50984C9.37344 8.37921 9.19278 8.30396 9.00735 8.30396C8.82255 8.30396 8.64126 8.37914 8.51057 8.50984C8.37994 8.64053 8.30469 8.82182 8.30469 9.00662C8.30469 9.19212 8.37987 9.37271 8.51057 9.5034C8.64126 9.63403 8.82255 9.70928 9.00735 9.70928C9.19278 9.70928 9.37344 9.63403 9.50413 9.5034Z" fill="#FD5523"/>
<path d="M22.8667 2.09942C23.0523 2.09942 23.2336 2.02487 23.3642 1.89354C23.4949 1.76284 23.5702 1.58219 23.5702 1.39676C23.5702 1.21196 23.495 1.03067 23.3642 0.899972C23.2336 0.769347 23.0523 0.694092 22.8667 0.694092C22.6819 0.694092 22.5006 0.769277 22.37 0.899972C22.2393 1.03067 22.1641 1.21196 22.1641 1.39676C22.1641 1.58226 22.2392 1.76284 22.37 1.89354C22.5006 2.02487 22.6819 2.09942 22.8667 2.09942Z" fill="#FD5523"/>
</g>
<defs>
<clipPath id="clip0_2418_190">
<rect width="36" height="36" fill="white"/>
</clipPath>
</defs>
</svg>
